<svg width="28" height="15" viewBox="0 0 28 15" fill="none" xmlns="http://www.w3.org/2000/svg">
<path d="M0.208 13.344C0.488 13.328 0.708 13.284 0.868 13.212C1.028 13.14 1.16 13.028 1.264 12.876C1.376 12.724 1.464 12.536 1.528 12.312C1.6 12.088 1.676 11.812 1.756 11.484C1.796 11.292 1.856 11.004 1.936 10.62C2.024 10.236 2.116 9.804 2.212 9.324C2.316 8.844 2.42 8.336 2.524 7.8C2.636 7.264 2.74 6.744 2.836 6.24C2.932 5.736 3.016 5.272 3.088 4.848C3.168 4.424 3.228 4.084 3.268 3.828C3.452 3.844 3.616 3.86 3.76 3.876C3.912 3.884 4.076 3.888 4.252 3.888C4.42 3.888 4.58 3.884 4.732 3.876C4.884 3.86 5.036 3.844 5.188 3.828C5.172 3.9 5.14 4.032 5.092 4.224C5.044 4.408 4.992 4.604 4.936 4.812C4.888 5.012 4.84 5.204 4.792 5.388C4.752 5.564 4.724 5.688 4.708 5.76C4.596 6.232 4.5 6.644 4.42 6.996C4.348 7.34 4.284 7.66 4.228 7.956C4.172 8.252 4.12 8.536 4.072 8.808C4.024 9.08 3.972 9.376 3.916 9.696C3.836 10.176 3.756 10.616 3.676 11.016C3.604 11.408 3.512 11.752 3.4 12.048C3.296 12.344 3.164 12.604 3.004 12.828C2.852 13.06 2.66 13.248 2.428 13.392C2.108 13.592 1.776 13.724 1.432 13.788C1.096 13.86 0.712 13.896 0.28 13.896L0.208 13.344ZM6.28009 9.12C6.28009 9.472 6.32409 9.796 6.41209 10.092C6.50809 10.388 6.64809 10.644 6.83209 10.86C7.01609 11.068 7.24409 11.232 7.51609 11.352C7.79609 11.464 8.11609 11.52 8.47609 11.52C8.84409 11.52 9.18409 11.444 9.49609 11.292C9.80809 11.14 10.0881 10.94 10.3361 10.692C10.5921 10.436 10.8161 10.144 11.0081 9.816C11.2001 9.488 11.3601 9.148 11.4881 8.796C11.6161 8.436 11.7121 8.08 11.7761 7.728C11.8401 7.368 11.8721 7.032 11.8721 6.72C11.8721 6.368 11.8201 6.048 11.7161 5.76C11.6201 5.472 11.4761 5.224 11.2841 5.016C11.0921 4.8 10.8561 4.636 10.5761 4.524C10.3041 4.404 9.99209 4.344 9.64009 4.344C9.24809 4.344 8.89209 4.416 8.57209 4.56C8.25209 4.704 7.96809 4.9 7.72009 5.148C7.47209 5.396 7.25609 5.68 7.07209 6C6.89609 6.32 6.74809 6.66 6.62809 7.02C6.50809 7.372 6.42009 7.728 6.36409 8.088C6.30809 8.448 6.28009 8.792 6.28009 9.12ZM4.49209 8.532C4.49209 7.868 4.61209 7.24 4.85209 6.648C5.10009 6.056 5.44409 5.54 5.88409 5.1C6.33209 4.66 6.86409 4.312 7.48009 4.056C8.09609 3.8 8.77609 3.672 9.52009 3.672C10.0801 3.672 10.6081 3.748 11.1041 3.9C11.6081 4.052 12.0481 4.28 12.4241 4.584C12.8081 4.888 13.1081 5.268 13.3241 5.724C13.5481 6.18 13.6601 6.712 13.6601 7.32C13.6601 7.952 13.5401 8.56 13.3001 9.144C13.0681 9.728 12.7321 10.244 12.2921 10.692C11.8521 11.14 11.3161 11.496 10.6841 11.76C10.0521 12.024 9.34009 12.156 8.54809 12.156C7.98809 12.156 7.46009 12.084 6.96409 11.94C6.47609 11.788 6.04809 11.56 5.68009 11.256C5.31209 10.944 5.02009 10.56 4.80409 10.104C4.59609 9.648 4.49209 9.124 4.49209 8.532ZM18.0522 5.748C18.0122 5.364 17.8762 5.048 17.6442 4.8C17.4122 4.544 17.0682 4.416 16.6122 4.416C16.4122 4.416 16.2322 4.448 16.0722 4.512C15.9202 4.576 15.7922 4.66 15.6882 4.764C15.5842 4.86 15.5042 4.976 15.4482 5.112C15.4002 5.24 15.3762 5.372 15.3762 5.508C15.3762 5.66 15.4042 5.808 15.4602 5.952C15.5242 6.088 15.6122 6.228 15.7242 6.372C15.8442 6.508 15.9922 6.656 16.1682 6.816C16.3442 6.968 16.5482 7.14 16.7802 7.332C16.9642 7.484 17.1402 7.64 17.3082 7.8C17.4762 7.952 17.6202 8.12 17.7402 8.304C17.8682 8.48 17.9682 8.676 18.0402 8.892C18.1202 9.1 18.1602 9.336 18.1602 9.6C18.1602 10.024 18.0802 10.396 17.9202 10.716C17.7682 11.036 17.5562 11.304 17.2842 11.52C17.0202 11.736 16.7122 11.896 16.3602 12C16.0082 12.104 15.6402 12.156 15.2562 12.156C14.7762 12.156 14.3402 12.104 13.9482 12C13.5562 11.896 13.1562 11.716 12.7482 11.46C12.8762 11.22 12.9842 10.968 13.0722 10.704C13.1602 10.44 13.2242 10.204 13.2642 9.996H13.5162C13.5482 10.452 13.7122 10.82 14.0082 11.1C14.3042 11.372 14.6922 11.508 15.1722 11.508C15.3482 11.508 15.5162 11.484 15.6762 11.436C15.8442 11.38 15.9922 11.3 16.1202 11.196C16.2482 11.092 16.3522 10.968 16.4322 10.824C16.5122 10.68 16.5522 10.512 16.5522 10.32C16.5522 10.16 16.5162 10.008 16.4442 9.864C16.3802 9.72 16.2882 9.58 16.1682 9.444C16.0562 9.3 15.9242 9.16 15.7722 9.024C15.6202 8.888 15.4562 8.748 15.2802 8.604C15.0722 8.436 14.8762 8.272 14.6922 8.112C14.5162 7.944 14.3602 7.768 14.2242 7.584C14.0882 7.4 13.9802 7.196 13.9002 6.972C13.8282 6.748 13.7922 6.496 13.7922 6.216C13.7922 5.808 13.8642 5.448 14.0082 5.136C14.1522 4.816 14.3482 4.552 14.5962 4.344C14.8442 4.128 15.1362 3.964 15.4722 3.852C15.8162 3.74 16.1802 3.684 16.5642 3.684C16.9962 3.684 17.3922 3.732 17.7522 3.828C18.1122 3.924 18.4722 4.088 18.8322 4.32C18.6722 4.616 18.5602 4.876 18.4962 5.1C18.4322 5.316 18.3722 5.532 18.3162 5.748H18.0522ZM19.7868 3.828C19.9308 3.844 20.0828 3.86 20.2428 3.876C20.4028 3.884 20.5788 3.888 20.7708 3.888C20.9788 3.888 21.1588 3.884 21.3108 3.876C21.4628 3.86 21.5988 3.844 21.7188 3.828C21.6228 4.14 21.5268 4.472 21.4308 4.824C21.3428 5.168 21.2588 5.5 21.1788 5.82C21.1068 6.14 21.0428 6.428 20.9868 6.684C20.9308 6.932 20.8908 7.112 20.8668 7.224C21.1468 7.232 21.4748 7.24 21.8508 7.248C22.2348 7.248 22.6108 7.248 22.9788 7.248C23.2348 7.248 23.4908 7.248 23.7468 7.248C24.0108 7.24 24.2708 7.232 24.5268 7.224C24.5588 7.088 24.6028 6.88 24.6588 6.6C24.7228 6.32 24.7868 6.016 24.8508 5.688C24.9228 5.36 24.9868 5.032 25.0428 4.704C25.1068 4.368 25.1588 4.076 25.1988 3.828C25.3348 3.844 25.4948 3.86 25.6788 3.876C25.8708 3.884 26.0588 3.888 26.2428 3.888C26.4268 3.888 26.5868 3.884 26.7228 3.876C26.8668 3.86 27.0028 3.844 27.1308 3.828C26.9948 4.228 26.8508 4.72 26.6988 5.304C26.5548 5.88 26.4028 6.524 26.2428 7.236C26.0908 7.94 25.9348 8.7 25.7748 9.516C25.6228 10.332 25.4748 11.168 25.3308 12.024C25.1708 12.008 25.0028 12 24.8268 12C24.6588 12 24.4948 12 24.3348 12C24.1588 12 23.9908 12 23.8308 12C23.6708 12 23.5188 12.008 23.3748 12.024C23.4628 11.744 23.5428 11.46 23.6148 11.172C23.6948 10.884 23.7708 10.584 23.8428 10.272C23.9228 9.96 23.9988 9.628 24.0708 9.276C24.1508 8.924 24.2348 8.536 24.3228 8.112C24.1388 8.104 23.9188 8.1 23.6628 8.1C23.4068 8.092 23.0428 8.088 22.5708 8.088H21.9468C21.6668 8.088 21.4388 8.092 21.2628 8.1C21.0868 8.108 20.8948 8.112 20.6868 8.112C20.5828 8.568 20.4948 8.956 20.4228 9.276C20.3588 9.588 20.2988 9.884 20.2428 10.164C20.1948 10.436 20.1468 10.72 20.0988 11.016C20.0588 11.304 20.0108 11.64 19.9548 12.024C19.7948 12.008 19.6228 12 19.4388 12C19.2548 12 19.0748 12 18.8988 12C18.7068 12 18.5388 12 18.3948 12C18.2588 12 18.1228 12.008 17.9868 12.024C18.1068 11.656 18.2308 11.236 18.3588 10.764C18.4868 10.292 18.6108 9.8 18.7308 9.288C18.8508 8.768 18.9628 8.244 19.0668 7.716C19.1788 7.188 19.2788 6.684 19.3668 6.204C19.4628 5.716 19.5468 5.268 19.6188 4.86C19.6908 4.452 19.7468 4.108 19.7868 3.828Z" fill="black"/>
</svg>
